<svg xmlns="http://www.w3.org/2000/svg" viewBox="0 0 96 96" aria-hidden="true" focusable="false">
  <g fill="none" stroke="currentColor" stroke-width="4.2" stroke-linecap="round" stroke-linejoin="round">
    <path d="M29 72c9 4 25 1 34-9 8-9 9-22 2-32-6-9-17-13-29-11" />
    <path d="M37 24c13-1 23 7 24 20 1 12-8 22-20 23" />
    <path d="M41 31c8 1 14 6 15 14 1 7-5 14-13 15" />
    <path d="M45 39c4 1 7 4 7 8 0 5-4 8-9 8" />
    <path d="M31 72c-5 1-10-2-12-7" />
    <path d="M24 64c-4 1-8-1-10-5" />
    <path d="M37 22c-8-8-17-9-26-5" />
    <path d="M34 27c-6-4-12-5-18-2" />
    <path d="M60 31c5-6 8-13 7-22" />
    <path d="M66 38c6-4 11-10 14-18" />
    <path d="M69 48c7-1 13-5 18-11" />
    <path d="M66 59c7 2 14 1 21-3" />
    <path d="M56 68c6 5 12 8 20 8" />
    <path d="M45 72c2 6 6 11 12 15" />
    <path d="M33 70c-1 7-4 12-10 15" />
    <path d="M42 21c0-6 2-10 7-13" />
    <path d="M50 23c4-5 8-8 14-9" />
    <path d="M23 18l-7-7" />
    <path d="M16 11l-6 1" />
    <path d="M18 23l-8-3" />
  </g>
  <g fill="currentColor">
    <circle cx="31" cy="29" r="2.7" />
    <circle cx="43" cy="47" r="3.2" />
    <circle cx="49" cy="47" r="1.6" />
    <circle cx="34" cy="55" r="2" />
  </g>
</svg>
